REM DIRINDEX 1\2\4\18,1\2\4\19,1\2\5\20,1\2\5\21,1\2\6\22,1\2\6\23,1\2\7\24,1\2\8\25,1\2\9\26,1\2\10\27,1\2\10\28,1\3\11\29,1\3\11\30,1\3\11\31,1\3\11\32,1\3\12\33,1\3\12\34,1\3\12\35,1\3\12\36,1\3\13\37,1\3\13\38,1\3\13\39,1\3\13\40,1\3\14\41,1\3\14\42,1\3\15\43,1\3\15\44,1\3\16\45,1\3\16\46,1\3\17\47,1\3\17\48,1\3\17\49,1\3\17\50
REM DIRNAME cjc135,folder01,folder02,folder03,folder04,folder05,folder06,folder07,folder08,folder09,folder10,folder11,folder12,folder13,folder14,folder15,folder16,folder17,folder18,folder19,folder20,folder21,folder22,folder23,folder24,folder25,folder26,folder27,folder28,folder29,folder30,folder31,folder32,folder33,folder34,folder35,folder36,folder37,folder38,folder39,folder40,folder41,folder42,folder43,folder44,folder45,folder46,folder47,folder48,folder49
TITLE ""
FILE "04.mp3" MP3
  TRACK 01 AUDIO
    TITLE "0:"
    INDEX 01 00:00:00
  TRACK 02 AUDIO
    TITLE "18:cjc135_0601"
    INDEX 01 00:00:15
  TRACK 03 AUDIO
    TITLE "0:"
    INDEX 01 00:01:28
  TRACK 04 AUDIO
    TITLE "19:cjc135_0602"
    INDEX 01 00:01:52
  TRACK 05 AUDIO
    TITLE "0:"
    INDEX 01 00:04:21
  TRACK 06 AUDIO
    TITLE "18:cjc135_0603"
    INDEX 01 00:05:20
  TRACK 07 AUDIO
    TITLE "0:"
    INDEX 01 00:06:24
  TRACK 08 AUDIO
    TITLE "19:cjc135_0604"
    INDEX 01 00:06:49
  TRACK 09 AUDIO
    TITLE "0:"
    INDEX 01 00:08:46
  TRACK 10 AUDIO
    TITLE "18:cjc135_0605"
    INDEX 01 00:09:45
  TRACK 11 AUDIO
    TITLE "0:"
    INDEX 01 00:10:53
  TRACK 12 AUDIO
    TITLE "19:cjc135_0606"
    INDEX 01 00:11:01
  TRACK 13 AUDIO
    TITLE "0:"
    INDEX 01 00:13:22
  TRACK 14 AUDIO
    TITLE "18:cjc135_0607"
    INDEX 01 00:14:23
  TRACK 15 AUDIO
    TITLE "0:"
    INDEX 01 00:15:25
  TRACK 16 AUDIO
    TITLE "19:cjc135_0608"
    INDEX 01 00:15:52
  TRACK 17 AUDIO
    TITLE "0:"
    INDEX 01 00:17:16
  TRACK 18 AUDIO
    TITLE "18:cjc135_0609"
    INDEX 01 00:18:17
  TRACK 19 AUDIO
    TITLE "0:"
    INDEX 01 00:19:32
  TRACK 20 AUDIO
    TITLE "19:cjc135_0610"
    INDEX 01 00:19:58
  TRACK 21 AUDIO
    TITLE "0:"
    INDEX 01 00:21:39
  TRACK 22 AUDIO
    TITLE "18:cjc135_0611"
    INDEX 01 00:22:36
  TRACK 23 AUDIO
    TITLE "0:"
    INDEX 01 00:23:46
  TRACK 24 AUDIO
    TITLE "19:cjc135_0612"
    INDEX 01 00:23:73
  TRACK 25 AUDIO
    TITLE "0:"
    INDEX 01 00:26:52
  TRACK 26 AUDIO
    TITLE "18:cjc135_0613"
    INDEX 01 00:27:55
  TRACK 27 AUDIO
    TITLE "0:"
    INDEX 01 00:28:64
  TRACK 28 AUDIO
    TITLE "19:cjc135_0614"
    INDEX 01 00:29:15
  TRACK 29 AUDIO
    TITLE "0:"
    INDEX 01 00:31:02
  TRACK 30 AUDIO
    TITLE "18:cjc135_0615"
    INDEX 01 00:32:01
  TRACK 31 AUDIO
    TITLE "0:"
    INDEX 01 00:33:07
  TRACK 32 AUDIO
    TITLE "19:cjc135_0616"
    INDEX 01 00:33:32
  TRACK 33 AUDIO
    TITLE "0:"
    INDEX 01 00:35:37
  TRACK 34 AUDIO
    TITLE "18:cjc135_0617"
    INDEX 01 00:36:36
  TRACK 35 AUDIO
    TITLE "0:"
    INDEX 01 00:37:36
  TRACK 36 AUDIO
    TITLE "19:cjc135_0618"
    INDEX 01 00:37:59
  TRACK 37 AUDIO
    TITLE "0:"
    INDEX 01 00:39:35
  TRACK 38 AUDIO
    TITLE "18:cjc135_0619"
    INDEX 01 00:40:34
  TRACK 39 AUDIO
    TITLE "0:"
    INDEX 01 00:41:38
  TRACK 40 AUDIO
    TITLE "19:cjc135_0620"
    INDEX 01 00:41:69
  TRACK 41 AUDIO
    TITLE "0:"
    INDEX 01 00:43:62
  TRACK 42 AUDIO
    TITLE "18:cjc135_0621"
    INDEX 01 00:44:61
  TRACK 43 AUDIO
    TITLE "0:"
    INDEX 01 00:45:67
  TRACK 44 AUDIO
    TITLE "19:cjc135_0622"
    INDEX 01 00:46:19
  TRACK 45 AUDIO
    TITLE "0:"
    INDEX 01 00:48:24
  TRACK 46 AUDIO
    TITLE "18:cjc135_0623"
    INDEX 01 00:49:35
  TRACK 47 AUDIO
    TITLE "0:"
    INDEX 01 00:50:46
  TRACK 48 AUDIO
    TITLE "19:cjc135_0624"
    INDEX 01 00:50:70
  TRACK 49 AUDIO
    TITLE "0:"
    INDEX 01 00:53:43
  TRACK 50 AUDIO
    TITLE "18:cjc135_0625"
    INDEX 01 00:54:44
  TRACK 51 AUDIO
    TITLE "0:"
    INDEX 01 00:55:55
  TRACK 52 AUDIO
    TITLE "19:cjc135_0626"
    INDEX 01 00:56:04
  TRACK 53 AUDIO
    TITLE "0:"
    INDEX 01 00:57:72
  TRACK 54 AUDIO
    TITLE "18:cjc135_0627"
    INDEX 01 00:58:69
  TRACK 55 AUDIO
    TITLE "0:"
    INDEX 01 00:59:73
  TRACK 56 AUDIO
    TITLE "19:cjc135_0628"
    INDEX 01 01:00:21
  TRACK 57 AUDIO
    TITLE "0:"
    INDEX 01 01:01:46
  TRACK 58 AUDIO
    TITLE "18:cjc135_0629"
    INDEX 01 01:02:48
  TRACK 59 AUDIO
    TITLE "0:"
    INDEX 01 01:03:61
  TRACK 60 AUDIO
    TITLE "19:cjc135_0630"
    INDEX 01 01:04:09
  TRACK 61 AUDIO
    TITLE "0:"
    INDEX 01 01:05:44
  TRACK 62 AUDIO
    TITLE "18:cjc135_0631"
    INDEX 01 01:06:45
  TRACK 63 AUDIO
    TITLE "0:"
    INDEX 01 01:07:53
  TRACK 64 AUDIO
    TITLE "19:cjc135_0632"
    INDEX 01 01:08:05
  TRACK 65 AUDIO
    TITLE "0:"
    INDEX 01 01:10:20
  TRACK 66 AUDIO
    TITLE "18:cjc135_0633"
    INDEX 01 01:11:21
  TRACK 67 AUDIO
    TITLE "0:"
    INDEX 01 01:12:30
  TRACK 68 AUDIO
    TITLE "19:cjc135_0634"
    INDEX 01 01:12:54
  TRACK 69 AUDIO
    TITLE "0:"
    INDEX 01 01:15:25
  TRACK 70 AUDIO
    TITLE "18:cjc135_0635"
    INDEX 01 01:16:24
  TRACK 71 AUDIO
    TITLE "0:"
    INDEX 01 01:17:22
  TRACK 72 AUDIO
    TITLE "19:cjc135_0636"
    INDEX 01 01:17:47
  TRACK 73 AUDIO
    TITLE "0:"
    INDEX 01 01:19:54
  TRACK 74 AUDIO
    TITLE "18:cjc135_0637"
    INDEX 01 01:20:51
  TRACK 75 AUDIO
    TITLE "0:"
    INDEX 01 01:21:53
  TRACK 76 AUDIO
    TITLE "19:cjc135_0638"
    INDEX 01 01:22:05
  TRACK 77 AUDIO
    TITLE "0:"
    INDEX 01 01:24:06
  TRACK 78 AUDIO
    TITLE "18:cjc135_0639"
    INDEX 01 01:25:02
  TRACK 79 AUDIO
    TITLE "0:"
    INDEX 01 01:26:09
  TRACK 80 AUDIO
    TITLE "19:cjc135_0640"
    INDEX 01 01:26:34
  TRACK 81 AUDIO
    TITLE "0:"
    INDEX 01 01:28:37
  TRACK 82 AUDIO
    TITLE "18:cjc135_0641"
    INDEX 01 01:29:37
  TRACK 83 AUDIO
    TITLE "0:"
    INDEX 01 01:30:42
  TRACK 84 AUDIO
    TITLE "19:cjc135_0642"
    INDEX 01 01:30:66
  TRACK 85 AUDIO
    TITLE "0:"
    INDEX 01 01:33:58
  TRACK 86 AUDIO
    TITLE "18:cjc135_0643"
    INDEX 01 01:34:57
  TRACK 87 AUDIO
    TITLE "0:"
    INDEX 01 01:35:61
  TRACK 88 AUDIO
    TITLE "19:cjc135_0644"
    INDEX 01 01:36:09
  TRACK 89 AUDIO
    TITLE "0:"
    INDEX 01 01:38:26
  TRACK 90 AUDIO
    TITLE "18:cjc135_0645"
    INDEX 01 01:39:25
  TRACK 91 AUDIO
    TITLE "0:"
    INDEX 01 01:40:46
  TRACK 92 AUDIO
    TITLE "19:cjc135_0646"
    INDEX 01 01:40:72
  TRACK 93 AUDIO
    TITLE "0:"
    INDEX 01 01:43:41
  TRACK 94 AUDIO
    TITLE "18:cjc135_0647"
    INDEX 01 01:44:42
  TRACK 95 AUDIO
    TITLE "0:"
    INDEX 01 01:45:59
  TRACK 96 AUDIO
    TITLE "19:cjc135_0648"
    INDEX 01 01:46:08
  TRACK 97 AUDIO
    TITLE "0:"
    INDEX 01 01:47:68
  TRACK 98 AUDIO
    TITLE "18:cjc135_0649"
    INDEX 01 01:48:67
  TRACK 99 AUDIO
    TITLE "0:"
    INDEX 01 01:50:21
  TRACK 100 AUDIO
    TITLE "19:cjc135_0650"
    INDEX 01 01:50:45
  TRACK 101 AUDIO
    TITLE "0:"
    INDEX 01 01:52:61
  TRACK 102 AUDIO
    TITLE "18:cjc135_0651"
    INDEX 01 01:53:59
  TRACK 103 AUDIO
    TITLE "0:"
    INDEX 01 01:54:46
  TRACK 104 AUDIO
    TITLE "19:cjc135_0652"
    INDEX 01 01:54:72
  TRACK 105 AUDIO
    TITLE "0:"
    INDEX 01 01:56:59
  TRACK 106 AUDIO
    TITLE "18:cjc135_0653"
    INDEX 01 01:57:60
  TRACK 107 AUDIO
    TITLE "0:"
    INDEX 01 01:59:08
  TRACK 108 AUDIO
    TITLE "19:cjc135_0654"
    INDEX 01 01:59:36
  TRACK 109 AUDIO
    TITLE "0:"
    INDEX 01 02:02:13
  TRACK 110 AUDIO
    TITLE "18:cjc135_0655"
    INDEX 01 02:03:14
  TRACK 111 AUDIO
    TITLE "0:"
    INDEX 01 02:04:31
  TRACK 112 AUDIO
    TITLE "19:cjc135_0656"
    INDEX 01 02:04:57
  TRACK 113 AUDIO
    TITLE "0:"
    INDEX 01 02:06:67
  TRACK 114 AUDIO
    TITLE "18:cjc135_0657"
    INDEX 01 02:07:67
  TRACK 115 AUDIO
    TITLE "0:"
    INDEX 01 02:08:74
  TRACK 116 AUDIO
    TITLE "19:cjc135_0658"
    INDEX 01 02:09:22
  TRACK 117 AUDIO
    TITLE "0:"
    INDEX 01 02:11:00
  TRACK 118 AUDIO
    TITLE "18:cjc135_0659"
    INDEX 01 02:11:74
  TRACK 119 AUDIO
    TITLE "0:"
    INDEX 01 02:13:12
  TRACK 120 AUDIO
    TITLE "19:cjc135_0660"
    INDEX 01 02:13:38
  TRACK 121 AUDIO
    TITLE "0:"
    INDEX 01 02:15:72
  TRACK 122 AUDIO
    TITLE "18:cjc135_0661"
    INDEX 01 02:16:70
  TRACK 123 AUDIO
    TITLE "0:"
    INDEX 01 02:18:00
  TRACK 124 AUDIO
    TITLE "19:cjc135_0662"
    INDEX 01 02:18:23
  TRACK 125 AUDIO
    TITLE "0:"
    INDEX 01 02:19:64
  TRACK 126 AUDIO
    TITLE "18:cjc135_0663"
    INDEX 01 02:20:65
  TRACK 127 AUDIO
    TITLE "0:"
    INDEX 01 02:22:09
  TRACK 128 AUDIO
    TITLE "19:cjc135_0664"
    INDEX 01 02:22:33
  TRACK 129 AUDIO
    TITLE "0:"
    INDEX 01 02:24:06
  TRACK 130 AUDIO
    TITLE "18:cjc135_0665"
    INDEX 01 02:25:08
  TRACK 131 AUDIO
    TITLE "0:"
    INDEX 01 02:26:17
  TRACK 132 AUDIO
    TITLE "19:cjc135_0666"
    INDEX 01 02:26:42
  TRACK 133 AUDIO
    TITLE "0:"
    INDEX 01 02:29:08
  TRACK 134 AUDIO
    TITLE "18:cjc135_0667"
    INDEX 01 02:30:05
  TRACK 135 AUDIO
    TITLE "0:"
    INDEX 01 02:31:03
  TRACK 136 AUDIO
    TITLE "19:cjc135_0668"
    INDEX 01 02:31:28
  TRACK 137 AUDIO
    TITLE "0:"
    INDEX 01 02:33:33
  TRACK 138 AUDIO
    TITLE "18:cjc135_0669"
    INDEX 01 02:34:32
  TRACK 139 AUDIO
    TITLE "0:"
    INDEX 01 02:35:38
  TRACK 140 AUDIO
    TITLE "19:cjc135_0670"
    INDEX 01 02:35:63
  TRACK 141 AUDIO
    TITLE "0:"
    INDEX 01 02:38:05
  TRACK 142 AUDIO
    TITLE "18:cjc135_0671"
    INDEX 01 02:39:04
  TRACK 143 AUDIO
    TITLE "0:"
    INDEX 01 02:40:05
  TRACK 144 AUDIO
    TITLE "19:cjc135_0672"
    INDEX 01 02:40:29
  TRACK 145 AUDIO
    TITLE "0:"
    INDEX 01 02:42:71
  TRACK 146 AUDIO
    TITLE "18:cjc135_0673"
    INDEX 01 02:43:70
  TRACK 147 AUDIO
    TITLE "0:"
    INDEX 01 02:44:70
  TRACK 148 AUDIO
    TITLE "19:cjc135_0674"
    INDEX 01 02:45:20
  TRACK 149 AUDIO
    TITLE "0:"
    INDEX 01 02:47:39
  TRACK 150 AUDIO
    TITLE "18:cjc135_0675"
    INDEX 01 02:48:36
  TRACK 151 AUDIO
    TITLE "0:"
    INDEX 01 02:49:34
  TRACK 152 AUDIO
    TITLE "19:cjc135_0676"
    INDEX 01 02:49:59
  TRACK 153 AUDIO
    TITLE "0:"
    INDEX 01 02:51:50
  TRACK 154 AUDIO
    TITLE "18:cjc135_0677"
    INDEX 01 02:52:50
  TRACK 155 AUDIO
    TITLE "0:"
    INDEX 01 02:53:59
  TRACK 156 AUDIO
    TITLE "19:cjc135_0678"
    INDEX 01 02:54:09
  TRACK 157 AUDIO
    TITLE "0:"
    INDEX 01 02:55:54
  TRACK 158 AUDIO
    TITLE "18:cjc135_0679"
    INDEX 01 02:56:51
  TRACK 159 AUDIO
    TITLE "0:"
    INDEX 01 02:57:65
  TRACK 160 AUDIO
    TITLE "19:cjc135_0680"
    INDEX 01 02:58:15
  TRACK 161 AUDIO
    TITLE "0:"
    INDEX 01 02:59:69
  TRACK 162 AUDIO
    TITLE "18:cjc135_0681"
    INDEX 01 03:00:67
  TRACK 163 AUDIO
    TITLE "0:"
    INDEX 01 03:02:05
  TRACK 164 AUDIO
    TITLE "19:cjc135_0682"
    INDEX 01 03:02:30
  TRACK 165 AUDIO
    TITLE "0:"
    INDEX 01 03:04:41
  TRACK 166 AUDIO
    TITLE "18:cjc135_0683"
    INDEX 01 03:05:43
  TRACK 167 AUDIO
    TITLE "0:"
    INDEX 01 03:06:62
  TRACK 168 AUDIO
    TITLE "19:cjc135_0684"
    INDEX 01 03:07:10
  TRACK 169 AUDIO
    TITLE "0:"
    INDEX 01 03:09:13
  TRACK 170 AUDIO
    TITLE "18:cjc135_0685"
    INDEX 01 03:10:12
  TRACK 171 AUDIO
    TITLE "0:"
    INDEX 01 03:11:18
  TRACK 172 AUDIO
    TITLE "19:cjc135_0686"
    INDEX 01 03:11:45
  TRACK 173 AUDIO
    TITLE "0:"
    INDEX 01 03:13:56
  TRACK 174 AUDIO
    TITLE "18:cjc135_0687"
    INDEX 01 03:14:57
  TRACK 175 AUDIO
    TITLE "0:"
    INDEX 01 03:15:61
  TRACK 176 AUDIO
    TITLE "19:cjc135_0688"
    INDEX 01 03:16:09
  TRACK 177 AUDIO
    TITLE "0:"
    INDEX 01 03:18:37
  TRACK 178 AUDIO
    TITLE "18:cjc135_0689"
    INDEX 01 03:19:37
  TRACK 179 AUDIO
    TITLE "0:"
    INDEX 01 03:20:50
  TRACK 180 AUDIO
    TITLE "19:cjc135_0690"
    INDEX 01 03:21:00
  TRACK 181 AUDIO
    TITLE "0:"
    INDEX 01 03:23:03
  TRACK 182 AUDIO
    TITLE "18:cjc135_0691"
    INDEX 01 03:24:03
  TRACK 183 AUDIO
    TITLE "0:"
    INDEX 01 03:25:20
  TRACK 184 AUDIO
    TITLE "19:cjc135_0692"
    INDEX 01 03:25:45
  TRACK 185 AUDIO
    TITLE "0:"
    INDEX 01 03:27:50
  TRACK 186 AUDIO
    TITLE "18:cjc135_0693"
    INDEX 01 03:28:49
  TRACK 187 AUDIO
    TITLE "0:"
    INDEX 01 03:29:59
  TRACK 188 AUDIO
    TITLE "19:cjc135_0694"
    INDEX 01 03:30:09
  TRACK 189 AUDIO
    TITLE "0:"
    INDEX 01 03:31:62
  TRACK 190 AUDIO
    TITLE "18:cjc135_0695"
    INDEX 01 03:32:59
  TRACK 191 AUDIO
    TITLE "0:"
    INDEX 01 03:33:57
  TRACK 192 AUDIO
    TITLE "19:cjc135_0696"
    INDEX 01 03:34:07
  TRACK 193 AUDIO
    TITLE "0:"
    INDEX 01 03:36:43
  TRACK 194 AUDIO
    TITLE "18:cjc135_0697"
    INDEX 01 03:37:43
  TRACK 195 AUDIO
    TITLE "0:"
    INDEX 01 03:38:46
  TRACK 196 AUDIO
    TITLE "19:cjc135_0698"
    INDEX 01 03:38:69
  TRACK 197 AUDIO
    TITLE "0:"
    INDEX 01 03:40:47
  TRACK 198 AUDIO
    TITLE "18:cjc135_0699"
    INDEX 01 03:41:46
  TRACK 199 AUDIO
    TITLE "0:"
    INDEX 01 03:42:61
  TRACK 200 AUDIO
    TITLE "19:cjc135_0700"
    INDEX 01 03:43:12
  TRACK 201 AUDIO
    TITLE "0:"
    INDEX 01 03:45:19
  TRACK 202 AUDIO
    TITLE "18:cjc135_0701"
    INDEX 01 03:46:18
  TRACK 203 AUDIO
    TITLE "0:"
    INDEX 01 03:47:51
  TRACK 204 AUDIO
    TITLE "19:cjc135_0702"
    INDEX 01 03:48:01
  TRACK 205 AUDIO
    TITLE "0:"
    INDEX 01 03:50:65
  TRACK 206 AUDIO
    TITLE "18:cjc135_0703"
    INDEX 01 03:51:64
  TRACK 207 AUDIO
    TITLE "0:"
    INDEX 01 03:52:60
  TRACK 208 AUDIO
    TITLE "19:cjc135_0704"
    INDEX 01 03:53:10
  TRACK 209 AUDIO
    TITLE "0:"
    INDEX 01 03:55:46
  TRACK 210 AUDIO
    TITLE "18:cjc135_0705"
    INDEX 01 03:56:52
  TRACK 211 AUDIO
    TITLE "0:"
    INDEX 01 03:57:57
  TRACK 212 AUDIO
    TITLE "19:cjc135_0706"
    INDEX 01 03:58:06
  TRACK 213 AUDIO
    TITLE "0:"
    INDEX 01 03:59:36
  TRACK 214 AUDIO
    TITLE "18:cjc135_0707"
    INDEX 01 04:00:34
  TRACK 215 AUDIO
    TITLE "0:"
    INDEX 01 04:01:47
  TRACK 216 AUDIO
    TITLE "19:cjc135_0708"
    INDEX 01 04:01:72
  TRACK 217 AUDIO
    TITLE "0:"
    INDEX 01 04:04:32
  TRACK 218 AUDIO
    TITLE "18:cjc135_0709"
    INDEX 01 04:05:29
  TRACK 219 AUDIO
    TITLE "0:"
    INDEX 01 04:06:25
  TRACK 220 AUDIO
    TITLE "19:cjc135_0710"
    INDEX 01 04:06:50
  TRACK 221 AUDIO
    TITLE "0:"
    INDEX 01 04:08:27
  TRACK 222 AUDIO
    TITLE "18:cjc135_0711"
    INDEX 01 04:09:27
  TRACK 223 AUDIO
    TITLE "0:"
    INDEX 01 04:10:20
  TRACK 224 AUDIO
    TITLE "19:cjc135_0712"
    INDEX 01 04:10:44
  TRACK 225 AUDIO
    TITLE "0:"
    INDEX 01 04:12:27
  TRACK 226 AUDIO
    TITLE "18:cjc135_0713"
    INDEX 01 04:13:27
  TRACK 227 AUDIO
    TITLE "0:"
    INDEX 01 04:14:26
  TRACK 228 AUDIO
    TITLE "19:cjc135_0714"
    INDEX 01 04:14:50
  TRACK 229 AUDIO
    TITLE "0:"
    INDEX 01 04:16:31
  TRACK 230 AUDIO
    TITLE "18:cjc135_0715"
    INDEX 01 04:17:30
  TRACK 231 AUDIO
    TITLE "0:"
    INDEX 01 04:18:32
  TRACK 232 AUDIO
    TITLE "19:cjc135_0716"
    INDEX 01 04:18:57
  TRACK 233 AUDIO
    TITLE "0:"
    INDEX 01 04:21:12
  TRACK 234 AUDIO
    TITLE "18:cjc135_0717"
    INDEX 01 04:22:10
  TRACK 235 AUDIO
    TITLE "0:"
    INDEX 01 04:23:21
  TRACK 236 AUDIO
    TITLE "19:cjc135_0718"
    INDEX 01 04:23:45
  TRACK 237 AUDIO
    TITLE "0:"
    INDEX 01 04:25:71
  TRACK 238 AUDIO
    TITLE "18:cjc135_0719"
    INDEX 01 04:26:72
  TRACK 239 AUDIO
    TITLE "0:"
    INDEX 01 04:27:74
  TRACK 240 AUDIO
    TITLE "19:cjc135_0720"
    INDEX 01 04:28:24
  TRACK 241 AUDIO
    TITLE "0:"
    INDEX 01 04:29:61
  TRACK 242 AUDIO
    TITLE "18:cjc135_0721"
    INDEX 01 04:30:60
  TRACK 243 AUDIO
    TITLE "0:"
    INDEX 01 04:31:62
  TRACK 244 AUDIO
    TITLE "19:cjc135_0722"
    INDEX 01 04:32:10
  TRACK 245 AUDIO
    TITLE "0:"
    INDEX 01 04:33:63
  TRACK 246 AUDIO
    TITLE "18:cjc135_0723"
    INDEX 01 04:34:62
  TRACK 247 AUDIO
    TITLE "0:"
    INDEX 01 04:35:65
  TRACK 248 AUDIO
    TITLE "19:cjc135_0724"
    INDEX 01 04:36:14
  TRACK 249 AUDIO
    TITLE "0:"
    INDEX 01 04:37:68
  TRACK 250 AUDIO
    TITLE "18:cjc135_0725"
    INDEX 01 04:38:70
  TRACK 251 AUDIO
    TITLE "0:"
    INDEX 01 04:40:00
  TRACK 252 AUDIO
    TITLE "19:cjc135_0726"
    INDEX 01 04:40:25
  TRACK 253 AUDIO
    TITLE "0:"
    INDEX 01 04:42:32
  TRACK 254 AUDIO
    TITLE "18:cjc135_0727"
    INDEX 01 04:43:32
  TRACK 255 AUDIO
    TITLE "0:"
    INDEX 01 04:44:31
  TRACK 256 AUDIO
    TITLE "19:cjc135_0728"
    INDEX 01 04:44:57
  TRACK 257 AUDIO
    TITLE "0:"
    INDEX 01 04:47:27
  TRACK 258 AUDIO
    TITLE "18:cjc135_0729"
    INDEX 01 04:48:27
  TRACK 259 AUDIO
    TITLE "0:"
    INDEX 01 04:49:30
  TRACK 260 AUDIO
    TITLE "19:cjc135_0730"
    INDEX 01 04:49:56
  TRACK 261 AUDIO
    TITLE "0:"
    INDEX 01 04:51:35
  TRACK 262 AUDIO
    TITLE "18:cjc135_0731"
    INDEX 01 04:52:35
  TRACK 263 AUDIO
    TITLE "0:"
    INDEX 01 04:53:46
  TRACK 264 AUDIO
    TITLE "19:cjc135_0732"
    INDEX 01 04:54:00
  TRACK 265 AUDIO
    TITLE "0:"
    INDEX 01 04:56:11
  TRACK 266 AUDIO
    TITLE "18:cjc135_0733"
    INDEX 01 04:57:12
  TRACK 267 AUDIO
    TITLE "0:"
    INDEX 01 04:58:29
  TRACK 268 AUDIO
    TITLE "19:cjc135_0734"
    INDEX 01 04:58:53
  TRACK 269 AUDIO
    TITLE "0:"
    INDEX 01 05:00:18
  TRACK 270 AUDIO
    TITLE "18:cjc135_0735"
    INDEX 01 05:01:18
  TRACK 271 AUDIO
    TITLE "0:"
    INDEX 01 05:02:27
  TRACK 272 AUDIO
    TITLE "19:cjc135_0736"
    INDEX 01 05:02:51
  TRACK 273 AUDIO
    TITLE "0:"
    INDEX 01 05:04:51
  TRACK 274 AUDIO
    TITLE "18:cjc135_0737"
    INDEX 01 05:05:53
  TRACK 275 AUDIO
    TITLE "0:"
    INDEX 01 05:06:52
  TRACK 276 AUDIO
    TITLE "19:cjc135_0738"
    INDEX 01 05:07:03
  TRACK 277 AUDIO
    TITLE "0:"
    INDEX 01 05:08:69
  TRACK 278 AUDIO
    TITLE "18:cjc135_0739"
    INDEX 01 05:09:66
  TRACK 279 AUDIO
    TITLE "0:"
    INDEX 01 05:11:12
  TRACK 280 AUDIO
    TITLE "19:cjc135_0740"
    INDEX 01 05:11:34
  TRACK 281 AUDIO
    TITLE "0:"
    INDEX 01 05:14:07
  TRACK 282 AUDIO
    TITLE "18:cjc135_0741"
    INDEX 01 05:15:06
  TRACK 283 AUDIO
    TITLE "0:"
    INDEX 01 05:16:10
  TRACK 284 AUDIO
    TITLE "19:cjc135_0742"
    INDEX 01 05:16:35
  TRACK 285 AUDIO
    TITLE "0:"
    INDEX 01 05:18:01
  TRACK 286 AUDIO
    TITLE "18:cjc135_0743"
    INDEX 01 05:18:73
  TRACK 287 AUDIO
    TITLE "0:"
    INDEX 01 05:20:13
  TRACK 288 AUDIO
    TITLE "19:cjc135_0744"
    INDEX 01 05:20:37
  TRACK 289 AUDIO
    TITLE "0:"
    INDEX 01 05:23:17
  TRACK 290 AUDIO
    TITLE "18:cjc135_0745"
    INDEX 01 05:24:17
  TRACK 291 AUDIO
    TITLE "0:"
    INDEX 01 05:25:20
  TRACK 292 AUDIO
    TITLE "19:cjc135_0746"
    INDEX 01 05:25:44
  TRACK 293 AUDIO
    TITLE "0:"
    INDEX 01 05:28:07
  TRACK 294 AUDIO
    TITLE "18:cjc135_0747"
    INDEX 01 05:29:04
  TRACK 295 AUDIO
    TITLE "0:"
    INDEX 01 05:29:73
  TRACK 296 AUDIO
    TITLE "19:cjc135_0748"
    INDEX 01 05:30:21
  TRACK 297 AUDIO
    TITLE "0:"
    INDEX 01 05:32:28
  TRACK 298 AUDIO
    TITLE "18:cjc135_0749"
    INDEX 01 05:33:28
  TRACK 299 AUDIO
    TITLE "0:"
    INDEX 01 05:34:27
  TRACK 300 AUDIO
    TITLE "19:cjc135_0750"
    INDEX 01 05:34:51
  TRACK 301 AUDIO
    TITLE "0:"
    INDEX 01 05:36:48
  TRACK 302 AUDIO
    TITLE "18:cjc135_0751"
    INDEX 01 05:37:49
  TRACK 303 AUDIO
    TITLE "0:"
    INDEX 01 05:38:52
  TRACK 304 AUDIO
    TITLE "19:cjc135_0752"
    INDEX 01 05:39:03
  TRACK 305 AUDIO
    TITLE "0:"
    INDEX 01 05:41:09
  TRACK 306 AUDIO
    TITLE "18:cjc135_0753"
    INDEX 01 05:42:09
  TRACK 307 AUDIO
    TITLE "0:"
    INDEX 01 05:43:04
  TRACK 308 AUDIO
    TITLE "19:cjc135_0754"
    INDEX 01 05:43:30
  TRACK 309 AUDIO
    TITLE "0:"
    INDEX 01 05:44:51
  TRACK 310 AUDIO
    TITLE "18:cjc135_0755"
    INDEX 01 05:45:50
  TRACK 311 AUDIO
    TITLE "0:"
    INDEX 01 05:46:50
  TRACK 312 AUDIO
    TITLE "19:cjc135_0756"
    INDEX 01 05:47:00
  TRACK 313 AUDIO
    TITLE "0:"
    INDEX 01 05:48:59
  TRACK 314 AUDIO
    TITLE "18:cjc135_0757"
    INDEX 01 05:49:58
  TRACK 315 AUDIO
    TITLE "0:"
    INDEX 01 05:50:63
  TRACK 316 AUDIO
    TITLE "19:cjc135_0758"
    INDEX 01 05:51:12
  TRACK 317 AUDIO
    TITLE "0:"
    INDEX 01 05:53:32
  TRACK 318 AUDIO
    TITLE "18:cjc135_0759"
    INDEX 01 05:54:32
  TRACK 319 AUDIO
    TITLE "0:"
    INDEX 01 05:55:43
  TRACK 320 AUDIO
    TITLE "19:cjc135_0760"
    INDEX 01 05:55:68
  TRACK 321 AUDIO
    TITLE "0:"
    INDEX 01 05:57:67
  TRACK 322 AUDIO
    TITLE "18:cjc135_0761"
    INDEX 01 05:58:67
  TRACK 323 AUDIO
    TITLE "0:"
    INDEX 01 05:59:74
  TRACK 324 AUDIO
    TITLE "19:cjc135_0762"
    INDEX 01 06:00:23
  TRACK 325 AUDIO
    TITLE "0:"
    INDEX 01 06:02:39
  TRACK 326 AUDIO
    TITLE "18:cjc135_0763"
    INDEX 01 06:03:40
  TRACK 327 AUDIO
    TITLE "0:"
    INDEX 01 06:04:48
  TRACK 328 AUDIO
    TITLE "19:cjc135_0764"
    INDEX 01 06:05:00
  TRACK 329 AUDIO
    TITLE "0:"
    INDEX 01 06:07:36
  TRACK 330 AUDIO
    TITLE "18:cjc135_0765"
    INDEX 01 06:08:38
  TRACK 331 AUDIO
    TITLE "0:"
    INDEX 01 06:09:45
  TRACK 332 AUDIO
    TITLE "19:cjc135_0766"
    INDEX 01 06:09:67
  TRACK 333 AUDIO
    TITLE "0:"
    INDEX 01 06:12:45
  TRACK 334 AUDIO
    TITLE "18:cjc135_0767"
    INDEX 01 06:13:45
  TRACK 335 AUDIO
    TITLE "0:"
    INDEX 01 06:14:54
  TRACK 336 AUDIO
    TITLE "19:cjc135_0768"
    INDEX 01 06:15:04
  TRACK 337 AUDIO
    TITLE "0:"
    INDEX 01 06:16:65
  TRACK 338 AUDIO
    TITLE "18:cjc135_0769"
    INDEX 01 06:17:64
  TRACK 339 AUDIO
    TITLE "0:"
    INDEX 01 06:19:02
  TRACK 340 AUDIO
    TITLE "19:cjc135_0770"
    INDEX 01 06:19:28
  TRACK 341 AUDIO
    TITLE "0:"
    INDEX 01 06:22:03
  TRACK 342 AUDIO
    TITLE "18:cjc135_0771"
    INDEX 01 06:23:02
  TRACK 343 AUDIO
    TITLE "0:"
    INDEX 01 06:23:73
  TRACK 344 AUDIO
    TITLE "19:cjc135_0772"
    INDEX 01 06:24:23
  TRACK 345 AUDIO
    TITLE "0:"
    INDEX 01 06:26:30
  TRACK 346 AUDIO
    TITLE "18:cjc135_0773"
    INDEX 01 06:27:29
  TRACK 347 AUDIO
    TITLE "0:"
    INDEX 01 06:28:46
  TRACK 348 AUDIO
    TITLE "19:cjc135_0774"
    INDEX 01 06:28:70
  TRACK 349 AUDIO
    TITLE "0:"
    INDEX 01 06:31:23
  TRACK 350 AUDIO
    TITLE "18:cjc135_0775"
    INDEX 01 06:32:23
  TRACK 351 AUDIO
    TITLE "0:"
    INDEX 01 06:33:55
  TRACK 352 AUDIO
    TITLE "19:cjc135_0776"
    INDEX 01 06:34:04
  TRACK 353 AUDIO
    TITLE "0:"
    INDEX 01 06:36:11
  TRACK 354 AUDIO
    TITLE "18:cjc135_0777"
    INDEX 01 06:37:10
  TRACK 355 AUDIO
    TITLE "0:"
    INDEX 01 06:38:09
  TRACK 356 AUDIO
    TITLE "19:cjc135_0778"
    INDEX 01 06:38:35
  TRACK 357 AUDIO
    TITLE "0:"
    INDEX 01 06:40:24
  TRACK 358 AUDIO
    TITLE "18:cjc135_0779"
    INDEX 01 06:41:25
  TRACK 359 AUDIO
    TITLE "0:"
    INDEX 01 06:42:31
  TRACK 360 AUDIO
    TITLE "19:cjc135_0780"
    INDEX 01 06:42:54
  TRACK 361 AUDIO
    TITLE "0:"
    INDEX 01 06:45:09
  TRACK 362 AUDIO
    TITLE "18:cjc135_0781"
    INDEX 01 06:46:07
  TRACK 363 AUDIO
    TITLE "0:"
    INDEX 01 06:47:12
  TRACK 364 AUDIO
    TITLE "19:cjc135_0782"
    INDEX 01 06:47:38
  TRACK 365 AUDIO
    TITLE "0:"
    INDEX 01 06:50:18
  TRACK 366 AUDIO
    TITLE "18:cjc135_0783"
    INDEX 01 06:51:18
  TRACK 367 AUDIO
    TITLE "0:"
    INDEX 01 06:52:25
  TRACK 368 AUDIO
    TITLE "19:cjc135_0784"
    INDEX 01 06:52:47
  TRACK 369 AUDIO
    TITLE "0:"
    INDEX 01 06:54:57
  TRACK 370 AUDIO
    TITLE "18:cjc135_0785"
    INDEX 01 06:55:57
  TRACK 371 AUDIO
    TITLE "0:"
    INDEX 01 06:56:68
  TRACK 372 AUDIO
    TITLE "19:cjc135_0786"
    INDEX 01 06:57:17
  TRACK 373 AUDIO
    TITLE "0:"
    INDEX 01 06:59:19
  TRACK 374 AUDIO
    TITLE "18:cjc135_0787"
    INDEX 01 07:00:19
  TRACK 375 AUDIO
    TITLE "0:"
    INDEX 01 07:01:28
  TRACK 376 AUDIO
    TITLE "19:cjc135_0788"
    INDEX 01 07:01:54
  TRACK 377 AUDIO
    TITLE "0:"
    INDEX 01 07:04:15
  TRACK 378 AUDIO
    TITLE "18:cjc135_0789"
    INDEX 01 07:05:14
  TRACK 379 AUDIO
    TITLE "0:"
    INDEX 01 07:06:12
  TRACK 380 AUDIO
    TITLE "19:cjc135_0790"
    INDEX 01 07:06:33
  TRACK 381 AUDIO
    TITLE "0:"
    INDEX 01 07:07:60
  TRACK 382 AUDIO
    TITLE "18:cjc135_0791"
    INDEX 01 07:08:60
  TRACK 383 AUDIO
    TITLE "0:"
    INDEX 01 07:09:69
  TRACK 384 AUDIO
    TITLE "19:cjc135_0792"
    INDEX 01 07:10:17
  TRACK 385 AUDIO
    TITLE "0:"
    INDEX 01 07:12:61
  TRACK 386 AUDIO
    TITLE "18:cjc135_0793"
    INDEX 01 07:13:59
  TRACK 387 AUDIO
    TITLE "0:"
    INDEX 01 07:15:01
  TRACK 388 AUDIO
    TITLE "19:cjc135_0794"
    INDEX 01 07:15:24
  TRACK 389 AUDIO
    TITLE "0:"
    INDEX 01 07:17:00
  TRACK 390 AUDIO
    TITLE "18:cjc135_0795"
    INDEX 01 07:17:72
  TRACK 391 AUDIO
    TITLE "0:"
    INDEX 01 07:18:70
  TRACK 392 AUDIO
    TITLE "19:cjc135_0796"
    INDEX 01 07:19:20
  TRACK 393 AUDIO
    TITLE "0:"
    INDEX 01 07:21:21
  TRACK 394 AUDIO
    TITLE "18:cjc135_0797"
    INDEX 01 07:22:20
  TRACK 395 AUDIO
    TITLE "0:"
    INDEX 01 07:23:32
  TRACK 396 AUDIO
    TITLE "19:cjc135_0798"
    INDEX 01 07:23:53
  TRACK 397 AUDIO
    TITLE "0:"
    INDEX 01 07:26:54
  TRACK 398 AUDIO
    TITLE "18:cjc135_0799"
    INDEX 01 07:27:57
  TRACK 399 AUDIO
    TITLE "0:"
    INDEX 01 07:28:56
  TRACK 400 AUDIO
    TITLE "19:cjc135_0800"
    INDEX 01 07:29:05
  TRACK 401 AUDIO
    TITLE "0:"
    INDEX 01 07:30:59
